<?xml version="1.0" encoding="utf-8"?>
<!-- Generator: Adobe Illustrator 16.0.0, SVG Export Plug-In . SVG Version: 6.00 Build 0)  -->
<!DOCTYPE svg PUBLIC "-//W3C//DTD SVG 1.1//EN" "http://www.w3.org/Graphics/SVG/1.1/DTD/svg11.dtd">
<svg version="1.1" id="Layer_1" xmlns="http://www.w3.org/2000/svg" xmlns:xlink="http://www.w3.org/1999/xlink" x="0px" y="0px"
	 width="224.988px" height="244.486px" viewBox="0 0 224.988 244.486" enable-background="new 0 0 224.988 244.486"
	 xml:space="preserve">
<g>
	<path fill="#0856E8" d="M44.4,77.682c2.007-6.239,3.579-12.179,5.807-17.861c6.37-16.249,16.426-29.682,31.418-38.979
		c26.862-16.66,59.963-9.894,81.047,16.463c8.348,10.437,13.84,22.269,17.014,35.214c0.392,1.596,0.853,3.172,1.392,5.163
		c2.932,0,5.739-0.073,8.545,0.013c11.028,0.339,19.231,8.072,19.975,19.074c2.676,39.7,5.279,79.405,7.885,119.109
		c0.762,11.579-8.242,21.081-20.315,21.22c-12.996,0.148-25.995,0.036-38.992,0.036c-42.16,0-84.319,0.002-126.479-0.001
		c-16.606-0.002-24.266-8.756-22.98-25.146c1.77-22.57,2.973-45.188,4.419-67.783c1.031-16.117,1.868-32.249,3.163-48.346
		c0.842-10.468,9.158-17.806,19.777-18.162C38.878,77.602,41.69,77.682,44.4,77.682z M43.175,85.741
		c-12.724-2.565-18.616,1.396-19.721,14.183c-1.319,15.253-2.091,30.554-3.108,45.833c-1.548,23.25-3.236,46.493-4.593,69.755
		c-0.542,9.28,4.533,14.144,13.927,14.152c23.657,0.023,47.313,0.009,70.97,0.009c31.986,0,63.974,0.019,95.959-0.015
		c8.725-0.01,13.669-5.002,13.478-13.654c-0.09-3.988-0.619-7.964-0.873-11.951c-2.105-33.223-4.162-66.449-6.331-99.669
		c-0.258-3.953-0.495-8.082-1.797-11.755c-2.37-6.687-8.899-8.825-18.452-6.892c0,5.476-0.005,10.919,0.003,16.36
		c0.004,3.027,0.318,6.846-3.844,6.738c-4.128-0.106-3.595-3.981-3.618-6.962c-0.032-4.165-0.144-8.33-0.086-12.493
		c0.043-3.149-1.205-4.43-4.489-4.31c-5.823,0.217-11.659,0.06-17.49,0.06c-32.318,0-64.64,0.069-96.959-0.085
		c-4.123-0.021-5.736,1.2-5.505,5.338c0.224,3.984-0.021,7.993,0,11.991c0.017,2.91,0.149,6.377-3.638,6.48
		c-3.836,0.105-3.86-3.311-3.841-6.26C43.201,96.988,43.175,91.378,43.175,85.741z M173.246,77.433
		c-2.683-13.265-7.762-24.679-15.619-34.828c-23.835-30.786-63.428-31.467-88.275-1.512c-7.889,9.51-13.042,20.412-15.964,32.386
		c-0.293,1.202-0.374,2.456-0.591,3.954C93.028,77.433,132.777,77.433,173.246,77.433z"/>
</g>
</svg>
