<?xml version="1.0" encoding="utf-8"?>
<!-- Generator: Adobe Illustrator 16.0.0, SVG Export Plug-In . SVG Version: 6.00 Build 0)  -->
<!DOCTYPE svg PUBLIC "-//W3C//DTD SVG 1.1//EN" "http://www.w3.org/Graphics/SVG/1.1/DTD/svg11.dtd">
<svg version="1.1" id="Layer_1" xmlns="http://www.w3.org/2000/svg" xmlns:xlink="http://www.w3.org/1999/xlink" x="0px" y="0px"
	 width="323.984px" height="199.49px" viewBox="0 0 323.984 199.49" enable-background="new 0 0 323.984 199.49"
	 xml:space="preserve">
<path fill-rule="evenodd" clip-rule="evenodd" fill="#FFFFFF" d="M311.334,189.111c0.007-54.76,0.004-109.519-0.012-164.278
	c-0.002-8.224-4.003-12.262-12.022-12.262c-88.929-0.002-177.855-0.003-266.783-0.004c-8.396,0-12.405,3.962-12.405,12.298
	c0.001,54.748,0.007,109.497,0.012,164.246H311.334z M26.25,171.675c0-48.688-0.001-97.375,0.001-146.063
	c0-5.971,0.936-6.928,6.81-6.928c88.536-0.003,177.071-0.003,265.606,0.001c5.192,0,6.506,1.073,6.509,5.63
	c0.023,52.25,0.017,104.501,0.009,156.752c0,0.78-0.106,1.562-0.188,2.669H26.25V171.675z"/>
<path fill-rule="evenodd" clip-rule="evenodd" fill="#FFFFFF" d="M245.181,108.471c-12.394,7.159-24.845,14.303-37.204,21.602
	c-0.779,0.461-1.204,2.13-1.186,3.229c0.094,5.663-2.511,10.356-7.317,12.521c-4.963,2.235-9.648,1.48-13.599-2.112
	c-4.075-3.708-5.079-8.36-3.452-13.729c0.388-1.279,0.042-3.412-0.829-4.35c-12.038-12.945-24.193-25.781-36.445-38.523
	c-0.804-0.836-2.602-0.854-3.964-0.989c-3.179-0.314-6.496-0.024-9.52-0.849c-1.954-0.532-3.194-0.862-4.941,0.445
	c-11.828,8.844-23.725,17.597-35.658,26.3c-1.713,1.249-2.211,2.364-1.748,4.579c1.17,5.595-2.108,11.27-7.33,13.514
	c-5.307,2.281-11.417,0.682-14.899-3.899c-3.54-4.657-3.469-10.836,0.176-15.401c3.585-4.49,9.727-6.105,14.929-3.414
	c2.435,1.261,3.932,0.851,5.946-0.658c11.506-8.616,23.097-17.118,34.694-25.61c1.699-1.244,2.695-2.247,2.102-4.799
	c-1.167-5.02,1.507-10.196,5.891-12.802c4.51-2.682,9.945-2.332,14.1,0.908c4.174,3.254,5.937,8.637,4.01,13.804
	c-0.848,2.272-0.347,3.552,1.174,5.149c12.007,12.612,23.905,25.328,35.966,37.889c0.903,0.94,2.987,1.561,4.221,1.224
	c3.992-1.091,7.457-0.368,11.014,1.529c1.182,0.631,3.282,0.718,4.417,0.081c11.379-6.385,22.676-12.918,33.887-19.589
	c1.125-0.67,2.166-2.52,2.183-3.837c0.088-6.657,3.581-11.629,9.721-13.217c5.288-1.369,11.051,1.149,13.824,6.039
	c2.818,4.97,1.842,11.28-2.357,15.227c-4.475,4.205-10.437,4.568-15.986,0.968C246.45,109.341,245.913,108.965,245.181,108.471z
	 M143.623,74.215c-0.024-3.585-2.982-6.449-6.564-6.353c-3.399,0.091-6.186,2.889-6.264,6.289c-0.082,3.58,2.793,6.527,6.378,6.538
	C140.791,80.699,143.647,77.833,143.623,74.215z M254.394,93.2c-3.585,0.021-6.458,2.959-6.401,6.545
	c0.056,3.579,3.047,6.412,6.636,6.287c3.453-0.121,6.149-2.88,6.197-6.34C260.874,96.099,257.98,93.177,254.394,93.2z
	 M83.439,118.623c0.009-3.585-2.922-6.477-6.502-6.415c-3.401,0.059-6.216,2.83-6.326,6.227c-0.114,3.581,2.733,6.557,6.316,6.602
	C80.544,125.081,83.429,122.239,83.439,118.623z M194.362,128.042c-3.618-0.073-6.532,2.766-6.553,6.38
	c-0.02,3.404,2.707,6.301,6.092,6.47c3.577,0.18,6.63-2.617,6.757-6.191C200.787,131.14,197.924,128.115,194.362,128.042z"/>
</svg>
