<?xml version="1.0" encoding="utf-8"?>
<!-- Generator: Adobe Illustrator 16.0.0, SVG Export Plug-In . SVG Version: 6.00 Build 0)  -->
<!DOCTYPE svg PUBLIC "-//W3C//DTD SVG 1.1//EN" "http://www.w3.org/Graphics/SVG/1.1/DTD/svg11.dtd">
<svg version="1.1" id="Capa_1" xmlns="http://www.w3.org/2000/svg" xmlns:xlink="http://www.w3.org/1999/xlink" x="0px" y="0px"
	 width="595.279px" height="648.064px" viewBox="0 0 595.279 648.064" enable-background="new 0 0 595.279 648.064"
	 xml:space="preserve">
<g>
	<path fill="#2CECEF" d="M315.249,81.562c0,7.229,0,14.084,0,21.154c3.565,0.4,7.034,0.87,10.519,1.169
		c26.405,2.265,52.215,7.263,77.12,16.557c34.994,13.059,65.592,32.99,92.41,58.866c22.007,21.232,40.228,45.278,53.894,72.693
		c10.949,21.964,18.438,45.071,22.901,69.191c3.194,17.265,4.999,34.662,5.033,52.216c0.089,43.502-10.269,84.393-31.142,122.559
		c-17.416,31.844-39.742,59.738-67.741,82.949c-27.729,22.99-59.115,39.051-93.637,49.135c-14.229,4.158-28.688,7.117-43.433,8.721
		c-4.603,0.5-9.163,1.391-13.747,2.072c-0.942,0.143-1.903,0.229-2.856,0.23c-10.24,0.016-20.48,0.078-30.719-0.035
		c-2.859-0.031-5.729-0.506-8.565-0.941c-10.031-1.539-20.121-2.799-30.063-4.791c-46.118-9.238-86.784-29.553-121.995-60.738
		c-23.062-20.426-42.541-43.797-57.742-70.646c-13.784-24.35-23.19-50.313-28.626-77.742c-3.996-20.158-5.84-40.494-5.314-61.047
		c0.728-28.395,6.107-55.888,15.961-82.497c13.104-35.387,32.07-67.231,58.42-94.373c36.354-37.448,79.816-62.799,130.563-75.41
		c12.434-3.09,25.067-5.028,37.84-6.096c5.974-0.499,11.932-1.176,17.896-1.778c0.387-0.039,0.767-0.137,1.283-0.232
		c0-7.218,0-14.379,0-21.702c-0.643-0.069-1.252-0.197-1.859-0.189c-5.997,0.082-11.995,0.247-17.992,0.268
		c-6.234,0.021-12.542,0.256-18.544-1.767c-13.671-4.604-23.05-13.598-25.845-27.986c-3.426-17.634,4.642-37.544,25.875-44.421
		c4.165-1.349,8.294-1.97,12.671-1.949c22.398,0.108,44.799,0.031,67.197,0.087c1.803,0.004,3.654,0.339,5.395,0.834
		c5.344,1.52,10.366,3.785,14.819,7.156c19.574,14.822,21.908,47.64-4.448,62.896c-7.186,4.159-15.061,5.625-23.278,5.595
		c-6.478-0.022-12.956-0.005-19.434-0.005C317.197,81.562,316.329,81.562,315.249,81.562z M309.212,114.364
		c-139.873-0.205-255.682,113.38-256.86,254.977c-1.187,142.537,115.052,258.656,256.354,258.934
		c141.147,0.277,256.662-114.584,257.48-255.176C567.021,229.706,450.531,114.308,309.212,114.364z M314.403,70.19
		c0.645,0.13,0.877,0.219,1.109,0.219c9.669-0.025,19.338-0.027,29.006-0.126c1.577-0.016,3.184-0.337,4.72-0.737
		c14.051-3.658,22.792-18.013,19.585-32.272c-2.945-13.097-13.854-20.787-24.72-20.96c-23.741-0.378-47.478-0.479-71.213,0.168
		c-2.672,0.073-5.224,0.688-7.676,1.711c-11.199,4.666-17.884,17.264-15.709,29.92c1.905,11.088,11.063,21.706,24.508,22.134
		c7.74,0.247,15.496,0.064,23.244,0.073c2.137,0.002,4.271,0,6.697,0c0-7.358,0-14.43,0-21.61c3.6,0,6.9,0,10.447,0
		C314.403,55.945,314.403,63.025,314.403,70.19z"/>
	<path fill="#2CECEF" d="M503.927,147.237c-2.426-2.597-4.76-5.095-7.037-7.533c0.033-0.28-0.009-0.49,0.077-0.579
		c4-4.132,7.901-8.366,12.058-12.337c2.924-2.793,6.469-4.643,10.545-5.357c3.569-0.627,7.009-0.01,10.419,0.915
		c5.085,1.378,9.698,3.726,13.735,7.113c7.777,6.527,12.833,14.802,15.4,24.586c1.032,3.939,0.575,7.846-1.396,11.396
		c-1.349,2.427-2.895,4.825-4.757,6.868c-3.438,3.773-7.174,7.276-10.741,10.849c-2.635-2.726-5.111-5.289-7.716-7.982
		c0.124-0.138,0.513-0.617,0.957-1.04c2.491-2.371,5.048-4.675,7.474-7.109c1.346-1.351,2.643-2.807,3.68-4.398
		c2.598-3.98,2.609-8.135,0.241-12.233c-0.714-1.234-1.598-2.413-2.592-3.435c-3.626-3.723-7.294-7.406-11.021-11.028
		c-2.166-2.105-4.729-3.524-7.819-3.82c-4.126-0.395-7.529,1.14-10.394,3.965c-3.133,3.088-6.18,6.26-9.27,9.392
		C505.221,146.021,504.643,146.55,503.927,147.237z"/>
	<path fill="#2CECEF" d="M121.479,138.851c-2.767,2.636-5.412,5.158-8.175,7.792c-0.513-0.498-0.976-0.905-1.388-1.358
		c-2.369-2.603-4.664-5.274-7.11-7.801c-1.325-1.369-2.792-2.663-4.386-3.697c-3.825-2.484-7.841-2.572-11.774-0.233
		c-1.499,0.891-2.933,1.971-4.189,3.178c-3.286,3.158-6.498,6.396-9.658,9.682c-1.154,1.202-2.202,2.548-3.087,3.963
		c-2.479,3.969-2.535,8.071,0.058,11.967c1.358,2.044,3.071,3.886,4.807,5.64c2.748,2.779,5.647,5.408,8.642,8.251
		c-2.636,2.569-5.188,5.056-7.863,7.665c-4.615-4.516-9.471-8.44-13.383-13.346c-4.525-5.672-5.756-11.961-3.927-18.945
		c2.002-7.644,5.909-14.115,11.761-19.408c5.177-4.683,11.143-8.018,17.759-10.194c5.755-1.894,11.192-1.198,16.28,2.116
		c0.469,0.306,0.938,0.612,1.39,0.942C112.566,128.951,116.781,133.979,121.479,138.851z"/>
	<path fill="#2CECEF" d="M314.637,173.029c0-3.305,0-6.379,0-9.74c1.303,0,2.479-0.021,3.652,0.003
		c33.756,0.7,65.168,9.888,94.187,26.902c45.904,26.918,77.725,65.559,94.894,116.04c5.117,15.042,8.306,30.535,9.499,46.388
		c0.527,7.01,0.621,14.053,0.889,21.08c0.031,0.857-0.087,1.719-0.144,2.707c-0.947,0.043-1.728,0.111-2.507,0.111
		c-42.713,0.018-85.425,0.033-128.138,0.041c-9.358,0.002-18.717-0.029-28.074-0.041c-0.959-0.002-1.923-0.016-2.878,0.064
		c-4.828,0.4-8.479,2.635-10.699,7.018c-0.435,0.854-0.828,1.73-1.194,2.615c-5.084,12.287-14.415,19.619-27.18,22.342
		c-21.32,4.549-42.074-10.119-45.315-31.672c-3.105-20.652,11.469-40.332,32.171-43.443c16.527-2.482,33.616,7.043,40.229,22.432
		c0.473,1.102,0.895,2.225,1.363,3.326c1.922,4.521,5.291,6.863,10.256,6.85c9.997-0.027,19.996-0.037,29.994-0.055
		c0.879-0.002,1.759-0.025,2.639-0.027c35.993-0.014,71.987-0.016,107.98-0.061c3.107-0.006,6.217-0.301,9.492-0.471
		c0.099-0.686,0.245-1.283,0.264-1.885c0.358-11.65-0.82-23.168-3.361-34.521c-8.391-37.504-26.553-69.724-53.313-97.102
		c-25.772-26.365-56.684-43.951-92.479-52.878c-12.286-3.063-24.755-4.953-37.401-5.653
		C317.947,173.315,316.436,173.167,314.637,173.029z M309.338,398.647c14.939-0.041,27.414-12.516,27.397-27.396
		c-0.019-15.004-12.569-27.418-27.67-27.369c-14.901,0.049-27.302,12.59-27.221,27.525
		C281.926,386.382,294.348,398.688,309.338,398.647z"/>
	<path fill="#2CECEF" d="M207.081,558.907c-3.136-1.779-6.098-3.457-9.34-5.295c3.463-5.986,6.837-11.818,10.32-17.84
		c3.118,1.801,6.067,3.506,9.286,5.365C213.914,547.081,210.543,552.917,207.081,558.907z"/>
	<path fill="#2CECEF" d="M401.229,541.192c3.094-1.801,6.029-3.512,9.188-5.35c3.452,5.908,6.821,11.672,10.363,17.729
		c-3.063,1.793-6.055,3.541-9.328,5.457C408.046,553.085,404.699,547.249,401.229,541.192z"/>
	<path fill="#2CECEF" d="M496.981,473.448c-1.888,3.258-3.564,6.152-5.382,9.287c-5.957-3.461-11.786-6.848-17.765-10.322
		c1.838-3.166,3.545-6.107,5.344-9.209C485.187,466.663,490.976,469.993,496.981,473.448z"/>
	<path fill="#2CECEF" d="M208.05,206.728c-3.425-5.966-6.722-11.709-10.191-17.756c3.07-1.805,6.041-3.568,9.247-5.331
		c3.439,5.929,6.795,11.708,10.262,17.682C214.25,203.131,211.299,204.844,208.05,206.728z"/>
	<path fill="#2CECEF" d="M139.301,463.19c1.833,3.154,3.547,6.102,5.396,9.281c-5.962,3.432-11.751,6.762-17.774,10.229
		c-1.778-3.07-3.484-6.01-5.357-9.242C127.487,470.03,133.316,466.655,139.301,463.19z"/>
	<path fill="#2CECEF" d="M121.572,269.099c1.861-3.208,3.54-6.101,5.354-9.228c5.907,3.382,11.701,6.699,17.791,10.187
		c-1.795,3.119-3.521,6.117-5.352,9.297C133.379,275.905,127.588,272.567,121.572,269.099z"/>
	<path fill="#2CECEF" d="M304.358,584.425c0-6.709,0-13.004,0-19.477c3.248,0,6.397,0,9.549,0c0.487,1.787,0.656,13.68,0.248,19.418
		C310.977,584.522,307.764,584.428,304.358,584.425z"/>
	<path fill="#2CECEF" d="M95.931,375.587c0-2.93,0-5.871,0-8.791c1.756-0.525,17.057-0.637,20.036-0.117c0,1.436,0,2.932,0,4.426
		c0,1.51,0,3.021,0,4.48C113.853,376.235,97.764,376.212,95.931,375.587z"/>
</g>
</svg>
