<?xml version="1.0" encoding="utf-8"?>
<!-- Generator: Adobe Illustrator 16.0.0, SVG Export Plug-In . SVG Version: 6.00 Build 0)  -->
<!DOCTYPE svg PUBLIC "-//W3C//DTD SVG 1.1//EN" "http://www.w3.org/Graphics/SVG/1.1/DTD/svg11.dtd">
<svg version="1.1" id="Layer_1" xmlns="http://www.w3.org/2000/svg" xmlns:xlink="http://www.w3.org/1999/xlink" x="0px" y="0px"
	 width="480.047px" height="144.5px" viewBox="0 0 480.047 144.5" enable-background="new 0 0 480.047 144.5" xml:space="preserve">
<g>
	<path fill="#FFFFFF" d="M108.079,113.529c0,2.65-0.929,4.904-2.782,6.756c-1.854,1.854-4.107,2.891-6.755,3.102h-0.318h-0.16
		h-0.953c-6.892-0.211-13.355-1.693-19.396-4.449c-6.04-2.754-11.303-6.438-15.785-11.049c-4.482-4.609-8.033-9.961-10.652-16.057
		c-2.62-6.094-3.924-12.639-3.924-19.634V30.867c0-2.754,0.962-5.086,2.885-6.994c1.922-1.908,4.275-2.863,7.051-2.863
		c2.776,0,5.15,0.955,7.129,2.863c1.977,1.907,2.966,4.24,2.966,6.994l-0.16,41.331c0,4.239,0.796,8.214,2.385,11.923
		c1.589,3.711,3.735,6.971,6.438,9.775c2.702,2.811,5.88,5.086,9.537,6.836c3.656,1.748,7.552,2.678,11.684,2.781h0.794
		c2.756,0,5.113,0.979,7.074,2.94C107.096,108.418,108.079,110.775,108.079,113.529z"/>
	<path fill="#FFFFFF" d="M154.973,21.965c8.159-1.377,16.188-0.795,24.083,1.748c7.896,2.545,14.758,6.783,20.587,12.719
		c4.771,4.77,8.449,10.308,11.049,16.613c2.594,6.306,3.841,12.851,3.736,19.633c0,5.402-0.875,10.678-2.622,15.815
		c-1.751,5.144-4.213,9.886-7.393,14.229c-5.195,6.994-11.765,12.32-19.712,15.977c-7.949,3.656-16.215,5.22-24.798,4.691
		c-4.454-0.32-8.799-1.217-13.037-2.703c-4.241-1.483-8.185-3.442-11.843-5.881c-3.655-2.438-6.969-5.299-9.936-8.584
		c-2.965-3.285-5.459-6.939-7.471-10.971c-1.907-3.918-3.313-8-4.213-12.238c-0.902-4.238-1.246-8.506-1.034-12.797
		c0.21-4.293,0.928-8.531,2.147-12.717c1.217-4.188,2.994-8.135,5.326-11.843c0.739-1.379,1.64-2.755,2.7-4.135h0.161
		c3.919-5.299,8.688-9.591,14.309-12.876C142.625,25.358,148.616,23.131,154.973,21.965z M189.31,90.16
		c2.226-3.283,3.788-6.835,4.689-10.65c0.9-3.813,1.087-7.682,0.558-11.604c-0.638-3.92-1.804-7.365-3.498-10.334
		c-2.122-3.814-4.875-7.1-8.268-9.855c-3.393-2.754-7.207-4.664-11.444-5.723c-4.133-1.166-8.375-1.431-12.718-0.795
		c-4.347,0.639-8.374,2.124-12.082,4.451c-4.769,3.075-8.479,7.154-11.129,12.241c-2.649,5.088-3.814,10.491-3.497,16.214
		c0.213,4.451,1.326,8.586,3.338,12.399c0.527,0.955,1.034,1.935,1.509,2.938c0.478,1.009,1.034,1.988,1.669,2.941
		c-0.953-1.588-1.855-3.23-2.702-4.926c1.694,3.072,3.868,5.801,6.517,8.186c2.647,2.385,5.616,4.32,8.901,5.801
		c3.391,1.488,6.942,2.308,10.652,2.466c3.708,0.157,7.313-0.341,10.81-1.509c3.389-1.059,6.518-2.647,9.38-4.771
		C184.859,95.518,187.295,93.021,189.31,90.16z"/>
	<path fill="#FFFFFF" d="M322.045,76.174c0,0.215-0.051,0.373-0.156,0.477c0,0.531-0.054,1.168-0.16,1.91
		c-0.104,0.74-0.264,1.644-0.475,2.701c-1.063,5.937-3.104,11.473-6.122,16.611c-3.021,5.143-6.756,9.594-11.205,13.354
		c-4.451,3.765-9.515,6.73-15.185,8.9c-5.67,2.174-11.631,3.262-17.881,3.262c-6.996,0-13.595-1.354-19.795-4.055
		c-6.197-2.703-11.62-6.359-16.261-10.97c-4.643-4.61-8.324-10.04-11.05-16.294c-2.723-6.252-4.086-12.875-4.086-19.871
		c0-6.994,1.361-13.617,4.086-19.871c2.725-6.252,6.407-11.684,11.05-16.293c4.641-4.609,10.063-8.266,16.261-10.968
		c6.2-2.703,12.799-4.055,19.795-4.055c5.189,0,10.116,0.743,14.78,2.226c4.663,1.487,9.009,3.497,13.038,6.04l1.746,1.114
		c2.329,1.484,3.788,3.551,4.374,6.199c0.581,2.648,0.13,5.14-1.353,7.469c-1.485,2.334-3.557,3.816-6.201,4.453
		c-2.647,0.637-5.143,0.213-7.473-1.271l-3.816-2.544c-2.223-1.166-4.609-2.092-7.154-2.782c-2.541-0.688-5.191-1.033-7.943-1.033
		c-4.348,0-8.404,0.822-12.162,2.464c-3.766,1.646-7.074,3.868-9.938,6.676c-2.856,2.81-5.108,6.121-6.753,9.937
		c-1.646,3.815-2.466,7.896-2.466,12.24c0,4.348,0.82,8.426,2.466,12.239c1.645,3.814,3.896,7.129,6.753,9.937
		c2.862,2.81,6.174,5.035,9.938,6.679c3.758,1.645,7.812,2.463,12.162,2.463c3.389,0,6.62-0.504,9.694-1.511
		c3.071-1.008,5.883-2.409,8.425-4.213c2.546-1.801,4.771-3.946,6.678-6.438c1.906-2.489,3.443-5.217,4.606-8.187h-13.667
		c-2.758,0-5.087-0.979-6.994-2.94c-1.904-1.959-2.861-4.316-2.861-7.074c0-2.754,0.957-5.086,2.861-6.994
		c1.907-1.908,4.236-2.861,6.994-2.861h24.641c3.07,0.213,5.644,1.459,7.705,3.734c2.069,2.279,3.104,4.957,3.104,8.027v0.955
		V76.174L322.045,76.174z"/>
	<path fill="#FFFFFF" d="M373.232,21.965c8.162-1.377,16.188-0.795,24.083,1.748c7.896,2.545,14.759,6.783,20.586,12.719
		c4.771,4.77,8.45,10.308,11.052,16.613c2.595,6.306,3.84,12.851,3.734,19.633c0,5.402-0.877,10.678-2.625,15.815
		c-1.748,5.144-4.212,9.886-7.392,14.229c-5.193,6.994-11.764,12.32-19.712,15.977c-7.946,3.656-16.214,5.22-24.797,4.691
		c-4.451-0.32-8.804-1.217-13.036-2.703c-4.24-1.483-8.188-3.442-11.845-5.881c-3.654-2.438-6.971-5.299-9.935-8.584
		c-2.969-3.285-5.463-6.939-7.476-10.971c-1.905-3.918-3.313-8-4.211-12.238c-0.903-4.238-1.245-8.506-1.032-12.797
		c0.211-4.293,0.928-8.531,2.146-12.717c1.217-4.188,2.993-8.135,5.327-11.843c0.74-1.379,1.641-2.755,2.7-4.135h0.159
		c3.918-5.299,8.686-9.591,14.307-12.876C360.887,25.358,366.875,23.131,373.232,21.965z M407.567,90.16
		c2.227-3.283,3.788-6.835,4.689-10.65c0.897-3.813,1.088-7.682,0.557-11.604c-0.635-3.92-1.802-7.365-3.497-10.334
		c-2.121-3.814-4.876-7.1-8.264-9.855c-3.393-2.754-7.208-4.664-11.445-5.723c-4.135-1.166-8.377-1.431-12.719-0.795
		c-4.346,0.639-8.37,2.124-12.081,4.451c-4.769,3.075-8.479,7.154-11.126,12.241c-2.651,5.088-3.816,10.491-3.499,16.214
		c0.212,4.451,1.323,8.586,3.335,12.399c0.529,0.955,1.035,1.935,1.511,2.938c0.479,1.009,1.034,1.988,1.67,2.941
		c-0.951-1.588-1.854-3.23-2.702-4.926c1.693,3.072,3.868,5.801,6.518,8.186c2.647,2.385,5.616,4.32,8.902,5.801
		c3.394,1.488,6.939,2.308,10.648,2.466c3.71,0.157,7.315-0.341,10.813-1.509c3.39-1.059,6.518-2.647,9.376-4.771
		C403.117,95.518,405.554,93.021,407.567,90.16z"/>
</g>
</svg>
