<?xml version="1.0" encoding="utf-8"?>
<!-- Generator: Adobe Illustrator 16.0.0, SVG Export Plug-In . SVG Version: 6.00 Build 0)  -->
<!DOCTYPE svg PUBLIC "-//W3C//DTD SVG 1.1//EN" "http://www.w3.org/Graphics/SVG/1.1/DTD/svg11.dtd">
<svg version="1.1" id="Layer_1" xmlns="http://www.w3.org/2000/svg" xmlns:xlink="http://www.w3.org/1999/xlink" x="0px" y="0px"
	 width="418.79px" height="90.667px" viewBox="0 0 418.79 90.667" enable-background="new 0 0 418.79 90.667" xml:space="preserve">
<polygon fill="#003366" points="61.628,12.194 42.754,2.898 23.88,12.194 23.88,30.784 23.88,49.374 23.88,67.962 42.754,77.257 
	61.628,67.962 61.628,49.374 42.754,40.079 61.628,30.784 "/>
<g opacity="0.7">
	<g>
		<defs>
			<rect id="SVGID_1_" x="5.005" y="12.192" width="37.749" height="74.361"/>
		</defs>
		<clipPath id="SVGID_2_">
			<use xlink:href="#SVGID_1_"  overflow="visible"/>
		</clipPath>
		<polygon clip-path="url(#SVGID_2_)" fill="#3399CC" points="42.754,21.488 23.88,12.194 5.005,21.488 5.005,40.079 5.005,58.668 
			5.005,77.257 23.88,86.553 42.754,77.257 42.754,58.668 23.88,49.374 42.754,40.079 		"/>
	</g>
</g>
<path fill="#FFFFFF" d="M93.009,63.394V26.006h19.214c4.374,0,7.55,0.417,9.581,1.718c2.708,1.718,4.218,4.53,4.218,8.02
	c0,4.166-1.718,6.977-5.571,8.956c3.801,1.614,5.676,4.271,5.676,8.487c0,7.083-4.062,10.207-12.549,10.207H93.009z M100.872,41.368
	h11.508c3.489,0,5.155-1.302,5.155-4.322c0-3.02-1.666-4.322-5.155-4.322h-11.508V41.368z M117.639,52.407
	c0-3.125-1.666-4.427-5.155-4.427h-11.612v8.801h11.612C115.973,56.781,117.639,55.531,117.639,52.407"/>
<path fill="#FFFFFF" d="M133.625,63.394V26.006h19.214c4.374,0,7.55,0.417,9.581,1.718c2.708,1.718,4.218,4.53,4.218,8.02
	c0,4.166-1.718,6.977-5.572,8.956c3.801,1.614,5.676,4.271,5.676,8.487c0,7.083-4.062,10.207-12.549,10.207H133.625z
	 M141.488,41.368h11.507c3.489,0,5.156-1.302,5.156-4.322c0-3.02-1.667-4.322-5.156-4.322h-11.507V41.368z M158.254,52.407
	c0-3.125-1.667-4.427-5.155-4.427h-11.611v8.801h11.611C156.588,56.781,158.254,55.531,158.254,52.407"/>
<path fill="#FFFFFF" d="M180.488,45.69c0,8.383,2.551,11.195,9.165,11.195h12.914v6.509h-13.278c-4.53,0-8.019-0.365-11.664-3.281
	c-3.853-3.071-5.728-7.967-5.728-14.736c0-13.226,5.571-19.37,17.6-19.37h13.07v6.405h-12.914
	C183.039,32.411,180.488,36.42,180.488,45.69"/>
<path fill="#FFFFFF" d="M225.894,25.277c12.706,0,18.642,6.196,18.642,19.422c0,13.226-5.936,19.475-18.642,19.475
	c-12.861,0-18.642-6.249-18.642-19.839C207.252,31.474,213.345,25.277,225.894,25.277 M215.845,44.388
	c0,9.111,3.02,13.329,10.049,13.329c6.926,0,10.102-4.218,10.102-13.018s-3.176-13.018-10.102-13.018
	C219.125,31.682,215.845,35.9,215.845,44.388"/>
<rect x="251.252" y="26.006" fill="#FFFFFF" width="8.228" height="37.388"/>
<polygon fill="#FFFFFF" points="278.486,26.006 293.794,52.875 293.43,26.006 301.45,26.006 301.45,63.394 292.336,63.394 
	276.247,35.119 276.612,63.394 268.541,63.394 268.541,26.006 "/>
<path fill="#FFFFFF" d="M327.433,26.006c5.103,0,8.695,0.416,10.986,1.875c3.332,2.135,5.156,5.676,5.156,10.311
	c0,4.478-1.406,7.654-4.322,9.737c-3.176,2.238-6.821,2.396-11.507,2.396h-9.529v13.07h-7.863V26.006H327.433z M318.216,32.671
	v11.04h9.581c4.738,0,7.029-1.771,7.029-5.519c0-4.166-2.291-5.521-7.498-5.521H318.216z"/>
<path fill="#FFFFFF" d="M365.966,26.006l15.934,37.388h-8.748l-3.438-8.904h-16.246l-3.332,8.904h-8.332l15.83-37.388H365.966z
	 M356.019,47.824h11.145l-5.676-14.371L356.019,47.824z"/>
<polygon fill="#FFFFFF" points="385.544,26.006 394.761,40.274 404.134,26.006 413.245,26.006 398.821,46.886 398.821,63.394 
	390.958,63.394 390.958,46.886 376.69,26.006 "/>
</svg>
