<?xml version="1.0" encoding="utf-8"?>
<!-- Generator: Adobe Illustrator 16.0.0, SVG Export Plug-In . SVG Version: 6.00 Build 0)  -->
<!DOCTYPE svg PUBLIC "-//W3C//DTD SVG 1.1//EN" "http://www.w3.org/Graphics/SVG/1.1/DTD/svg11.dtd">
<svg version="1.1" id="Layer_1" xmlns="http://www.w3.org/2000/svg" xmlns:xlink="http://www.w3.org/1999/xlink" x="0px" y="0px"
	 width="595.28px" height="326px" viewBox="0 0 595.28 326" enable-background="new 0 0 595.28 326" xml:space="preserve">
<g>
	<linearGradient id="SVGID_1_" gradientUnits="userSpaceOnUse" x1="110.7324" y1="223.3594" x2="485.6582" y2="223.3594">
		<stop  offset="0" style="stop-color:#72C8AF"/>
		<stop  offset="1" style="stop-color:#4C9DD6"/>
	</linearGradient>
	<path fill-rule="evenodd" clip-rule="evenodd" fill="url(#SVGID_1_)" d="M485.658,198.612c-2.569,8.223-8.792,12.449-16.224,16.014
		c-48.323,23.176-96.557,46.538-144.761,69.959c-25.106,12.198-50.358,12.811-75.888,1.591c-10.042-4.413-19.982-9.327-31.07-10.277
		c-10.278-0.881-20.625-0.978-31.452-1.442c0,3.152,0.002,5.552,0,7.951c-0.008,7.563,0.034,15.127-0.044,22.689
		c-0.049,4.743-2.226,7.19-6.827,7.21c-20.615,0.087-41.231,0.02-61.846,0.048c-3.392,0.005-5.339-1.918-6.813-4.633
		c0-56.142,0-112.282,0-168.424c1.551-3.839,4.599-4.944,8.479-4.933c19.521,0.055,39.043,0.004,58.565,0.037
		c6.38,0.01,8.463,2.188,8.488,8.64c0.02,5.124,0.014,10.248,0.033,15.371c0.001,0.23,0.13,0.459,0.374,1.266
		c1.352,0,2.882-0.011,4.412,0.002c11.935,0.1,24.032-1.042,35.642,2.413c8.121,2.417,16.406,5.066,23.734,9.184
		c13.237,7.437,26.55,9.239,41.162,5.222c16.434-4.52,32.968-8.799,49.652-12.241c13.354-2.756,25.317,1.581,35.424,10.641
		c1.953,1.751,3.424,2.285,6.033,1.35c14.672-5.264,29.379-10.441,44.173-15.35c23.062-7.651,47.098,3.187,56.733,25.356
		c0.721,1.658,1.35,3.355,2.021,5.034C485.658,193.73,485.658,196.172,485.658,198.612z M291.821,234.882
		c29.057-11.697,57.592-23.185,86.099-34.66c-6.385-19.2-21.391-27.4-40.451-22.503c-15.336,3.94-30.695,7.788-46.033,11.726
		c-11.405,2.928-22.778,2.921-33.831-1.182c-6.021-2.235-11.715-5.383-17.481-8.27c-17.036-8.532-35.261-8.152-53.599-7.583
		c0,30.094,0,59.899,0,89.879c3.081,0,5.886,0.133,8.675-0.021c20.419-1.123,39.621,3.165,58.082,11.958
		c22.124,10.536,44.261,9.604,66.231-1.135c31.631-15.462,63.372-30.697,95.064-46.033c17.766-8.597,35.534-17.189,53.289-25.808
		c4.746-2.305,6.055-5.076,4.527-9.292c-5.214-14.387-22.455-24.022-37.332-20.006c-11.264,3.041-22.21,7.258-33.284,10.991
		c-4.924,1.659-9.815,3.416-14.963,5.213c1.634,3.931,3.125,7.506,4.607,11.086c2.469,5.963,1.348,8.629-4.702,11.063
		c-28.924,11.645-57.851,23.281-86.779,34.914c-1.075,0.433-2.179,0.795-3.421,1.245
		C294.896,242.459,293.441,238.875,291.821,234.882z M173.497,299.625c0-50.977,0-101.558,0-152.293c-16.723,0-33.247,0-49.922,0
		c0,50.887,0,101.546,0,152.293C140.313,299.625,156.76,299.625,173.497,299.625z"/>
	<linearGradient id="SVGID_2_" gradientUnits="userSpaceOnUse" x1="231.0107" y1="83.165" x2="365.3975" y2="83.165">
		<stop  offset="0" style="stop-color:#72C8AF"/>
		<stop  offset="1" style="stop-color:#4C9DD6"/>
	</linearGradient>
	<path fill-rule="evenodd" clip-rule="evenodd" fill="url(#SVGID_2_)" d="M365.384,83.592c-0.783,37.632-31.288,67.417-68.27,66.66
		c-36.864-0.754-67.122-31.78-66.077-67.752c1.093-37.617,31.129-67.081,67.719-66.426
		C336.057,16.741,366.141,47.227,365.384,83.592z M352.701,83.295c0.196-29.915-24.177-54.458-54.237-54.613
		c-30.097-0.155-54.35,23.831-54.691,54.089c-0.338,30.024,24.232,54.86,54.352,54.937
		C327.988,137.785,352.503,113.344,352.701,83.295z"/>
	<linearGradient id="SVGID_3_" gradientUnits="userSpaceOnUse" x1="136.9927" y1="259.6426" x2="160.0093" y2="259.6426">
		<stop  offset="0" style="stop-color:#72C8AF"/>
		<stop  offset="1" style="stop-color:#4C9DD6"/>
	</linearGradient>
	<path fill-rule="evenodd" clip-rule="evenodd" fill="url(#SVGID_3_)" d="M160.009,259.655c-0.003,6.474-5.128,11.553-11.611,11.508
		c-6.423-0.045-11.49-5.25-11.405-11.716c0.084-6.323,5.083-11.277,11.426-11.324C154.89,248.076,160.013,253.173,160.009,259.655z"
		/>
	<linearGradient id="SVGID_4_" gradientUnits="userSpaceOnUse" x1="275.4463" y1="83.1289" x2="320.6699" y2="83.1289">
		<stop  offset="0" style="stop-color:#72C8AF"/>
		<stop  offset="1" style="stop-color:#4C9DD6"/>
	</linearGradient>
	<path fill-rule="evenodd" clip-rule="evenodd" fill="url(#SVGID_4_)" d="M305.068,112.644c0,2.569,0,5.221,0,8.115
		c-3.148,0-6.004,0-8.838,0c-0.149-0.271-0.344-0.467-0.356-0.673c-0.135-2.304,0.57-5.237-0.588-6.732
		c-1.108-1.429-4.239-1.138-6.315-2.002c-4.435-1.846-8.763-3.951-13.524-6.127c1.489-2.687,2.526-4.557,3.736-6.741
		c4.9,3.814,10.069,6.458,16.545,7.184c0-6.284,0.069-12.229-0.091-18.168c-0.02-0.715-1.166-1.68-2-2.035
		c-1.781-0.759-3.729-1.116-5.558-1.776c-5.375-1.941-9.467-5.057-9.955-11.313c-0.505-6.473,1.529-11.919,7.23-15.275
		c3.077-1.813,6.673-2.741,10.475-4.241c0-2.13,0-4.646,0-7.361c3.096,0,5.845,0,8.558,0c0.187,0.247,0.478,0.458,0.452,0.62
		c-0.924,5.744,1.068,9.248,7.138,10.414c2.103,0.404,3.937,2.202,6.071,3.468c-1.201,2.13-2.204,3.908-3.189,5.655
		c-3.065-1.638-6.014-3.212-9.817-5.245c0,6.971-0.056,13.101,0.086,19.227c0.014,0.618,1.131,1.402,1.898,1.769
		c1.42,0.678,3,1.013,4.442,1.65c6.249,2.759,9.335,7.368,9.197,13.605c-0.149,6.808-3.646,11.751-10.112,14.197
		C308.852,111.501,307.093,111.99,305.068,112.644z M295.436,78.144c0-5.856,0-11.694,0-17.565c-6.781,0.899-9.734,3.662-9.76,8.884
		C285.65,74.417,288.714,77.166,295.436,78.144z M305.248,105.383c5.24-1.415,7.499-3.903,7.536-7.944
		c0.036-4.004-2.275-6.563-7.536-8.154C305.248,94.595,305.248,99.836,305.248,105.383z"/>
</g>
</svg>
