<?xml version="1.0" encoding="utf-8"?>
<!-- Generator: Adobe Illustrator 16.0.0, SVG Export Plug-In . SVG Version: 6.00 Build 0)  -->
<!DOCTYPE svg PUBLIC "-//W3C//DTD SVG 1.1//EN" "http://www.w3.org/Graphics/SVG/1.1/DTD/svg11.dtd">
<svg version="1.1" id="Layer_1" xmlns="http://www.w3.org/2000/svg" xmlns:xlink="http://www.w3.org/1999/xlink" x="0px" y="0px"
	 width="233.988px" height="254.986px" viewBox="0 0 233.988 254.986" enable-background="new 0 0 233.988 254.986"
	 xml:space="preserve">
<path fill="#0856E8" d="M19.129,31.735C19.706,11.396,39.429,1.303,52.966,5.117c23.422,6.596,47.064,12.397,70.631,18.472
	c6.566,1.694,11.846,5.078,16.69,10.014c28.985,29.52,58.23,58.78,87.388,88.127c8.362,8.418,8.416,15.952,0.164,24.322
	c-22.622,22.95-45.242,45.899-67.863,68.848c-7.707,7.819-15.49,7.863-23.192,0.111c-30.16-30.347-60.292-60.724-90.512-91.008
	c-2.858-2.865-5.019-5.962-6.068-9.862C34.781,94.02,29.326,73.906,23.964,53.767c-1.488-5.59-2.727-11.248-4.013-16.887
	C19.565,35.19,19.399,33.452,19.129,31.735z M24.332,32.735c0.073,0.484,0.188,1.904,0.511,3.274
	c1.81,7.648,3.531,15.319,5.536,22.916c4.705,17.828,9.485,35.634,14.426,53.396c0.671,2.411,2.013,4.938,3.751,6.695
	c30.603,30.973,61.312,61.834,92.005,92.714c5.258,5.291,10.267,5.283,15.474,0.01c22.857-23.165,45.716-46.334,68.568-69.505
	c5.785-5.866,5.756-10.723-0.09-16.609c-30.072-30.271-60.169-60.516-90.18-90.849c-2.618-2.649-5.459-4.53-9.009-5.457
	c-24.799-6.47-49.556-13.104-74.402-19.381C37.647,6.586,24.425,17.697,24.332,32.735z"/>
<path fill="#0856E8" d="M14.378,56.01c1.924,4.8,2.242,9.359,0.823,14.379c-2.761,9.764-5.009,19.685-7.164,29.605
	c-0.531,2.439-0.372,5.27,0.295,7.695c11.532,42.023,23.189,84.015,34.827,126.01c1.979,7.138,6.498,9.777,13.567,7.826
	c23.265-6.426,46.539-12.824,69.755-19.422c3.242-0.922,5.451-0.598,7.258,2.772c-3.782,1.08-7.563,2.191-11.353,3.244
	c-21.37,5.912-42.739,11.822-64.116,17.705c-10.035,2.763-16.84-1.181-19.618-11.21C27.17,193.144,15.721,151.66,4.102,110.227
	c-1.265-4.509-1.376-8.824-0.279-13.229c3.299-13.246,6.68-26.472,10.038-39.702C13.964,56.887,14.176,56.506,14.378,56.01z"/>
<circle fill="#0856E8" cx="46.71" cy="30.168" r="8.344"/>
</svg>
