<?xml version="1.0" encoding="utf-8"?>
<!-- Generator: Adobe Illustrator 16.0.0, SVG Export Plug-In . SVG Version: 6.00 Build 0)  -->
<!DOCTYPE svg PUBLIC "-//W3C//DTD SVG 1.1//EN" "http://www.w3.org/Graphics/SVG/1.1/DTD/svg11.dtd">
<svg version="1.1" id="Layer_1" xmlns="http://www.w3.org/2000/svg" xmlns:xlink="http://www.w3.org/1999/xlink" x="0px" y="0px"
	 width="224.988px" height="244.486px" viewBox="0 0 224.988 244.486" enable-background="new 0 0 224.988 244.486"
	 xml:space="preserve">
<g>
	<path fill="#0856E8" d="M37.125,165.665c3.199-7.925,6.095-15.108,9.006-22.276c0.479-1.186,0.725-2.725,1.611-3.403
		c1.17-0.882,3.161-1.803,4.252-1.365c1.031,0.419,2.042,2.686,1.843,3.951c-0.366,2.315-1.618,4.495-2.515,6.719
		c-3.17,7.871-6.313,15.751-9.534,23.595c-1.714,4.174-3.292,4.755-7.11,2.551c-9.805-5.65-19.562-11.374-29.34-17.063
		c-2.211-1.287-4.322-2.811-2.52-5.664c1.773-2.814,4.093-1.583,6.273-0.313c6.19,3.599,12.391,7.179,19.413,11.245
		c-1.228-5.158-2.297-9.365-3.227-13.595C13.606,96.971,42.997,45.465,93.423,30.596c57.382-16.924,115.619,20.29,125.226,80.019
		c9.277,57.716-37.367,112.716-95.544,112.704c-2.686,0-5.114-0.298-5.066-3.561c0.054-3.665,3.044-3.465,5.613-3.532
		c14.684-0.39,28.5-4.04,41.385-11.092c34.166-18.692,52.976-57.274,46.435-95.133c-6.679-38.667-36.608-68.639-75.057-75.163
		c-53.477-9.073-102.377,30.09-106.218,85.173C29.124,135.416,31.544,150.351,37.125,165.665z"/>
	<path fill="#0856E8" d="M79.709,110.974c1.639,0.631,2.832,1.059,3.996,1.544c11.194,4.679,22.421,9.292,33.553,14.118
		c2.488,1.078,4.011,0.719,5.886-1.184c12.514-12.673,25.145-25.234,37.739-37.824c0.696-0.702,1.296-1.787,2.126-2.011
		c1.658-0.45,3.44-0.423,5.178-0.596c-0.019,1.771,0.081,3.553-0.118,5.304c-0.061,0.557-0.91,1.027-1.409,1.525
		c-13.49,13.497-27.056,26.923-40.426,40.536c-2.918,2.975-5.469,3.476-9.32,1.778c-11.867-5.254-23.906-10.122-35.87-15.162
		c-1.163-0.492-2.623-0.852-3.295-1.756c-0.725-0.973-1.192-2.685-0.835-3.762C77.269,112.421,78.792,111.744,79.709,110.974z"/>
</g>
</svg>
