<?xml version="1.0" encoding="utf-8"?>
<!-- Generator: Adobe Illustrator 16.0.0, SVG Export Plug-In . SVG Version: 6.00 Build 0)  -->
<!DOCTYPE svg PUBLIC "-//W3C//DTD SVG 1.1//EN" "http://www.w3.org/Graphics/SVG/1.1/DTD/svg11.dtd">
<svg version="1.1" id="Capa_1" xmlns="http://www.w3.org/2000/svg" xmlns:xlink="http://www.w3.org/1999/xlink" x="0px" y="0px"
	 width="595.279px" height="648.064px" viewBox="0 0 595.279 648.064" enable-background="new 0 0 595.279 648.064"
	 xml:space="preserve">
<g>
	<g>
		<path fill="#2CECEF" d="M45.022,485.831c-0.344-3.944-0.667-7.665-1.011-11.603c2.718-0.316,5.232-0.636,7.755-0.896
			c14.48-1.493,28.86-3.688,43.149-6.446c37.17-7.175,73.199-18.122,108.02-32.994c61.131-26.11,115.604-62.267,163.196-108.679
			c60.132-58.643,103.941-127.719,131.717-206.977c5.788-16.517,11.581-33.03,17.366-49.548c0.259-0.737,0.457-1.494,0.846-2.776
			c-1.215,0.546-2.041,0.883-2.837,1.28c-20.311,10.149-40.615,20.307-60.923,30.46c-0.857,0.429-1.708,0.881-2.594,1.243
			c-3.081,1.259-6.325,0.06-7.732-2.823c-1.358-2.784-0.352-6.024,2.409-7.69c0.546-0.33,1.132-0.595,1.704-0.881
			c25.384-12.691,50.769-25.385,76.153-38.075c5.401-2.699,7.881-1.879,10.563,3.482c12.696,25.38,25.393,50.761,38.087,76.143
			c0.357,0.716,0.754,1.419,1.018,2.169c1.011,2.865-0.279,5.986-2.971,7.302c-2.64,1.29-5.741,0.497-7.433-1.979
			c-0.582-0.853-1.003-1.816-1.469-2.746c-10.299-20.593-20.591-41.188-30.89-61.781c-0.418-0.836-0.883-1.646-1.52-2.829
			c-0.513,1.386-0.879,2.337-1.217,3.298c-7.193,20.427-14.075,40.97-21.633,61.262c-26.516,71.203-66.173,134.226-119.141,188.691
			C316.037,394.01,232.95,442.95,136.664,469.412c-21.602,5.938-43.507,10.459-65.706,13.497
			c-8.076,1.105-16.187,1.958-24.283,2.915C46.216,485.879,45.743,485.831,45.022,485.831z"/>
		<path fill="#2CECEF" d="M562.36,416.046c0,56.943,0,113.889,0,170.833c0,0.8,0.016,1.601-0.005,2.398
			c-0.094,3.699-2.463,6.1-6.173,6.259c-0.399,0.019-0.8,0.005-1.199,0.005c-22.154,0-44.309,0-66.462-0.001
			c-0.561,0-1.123,0.025-1.68-0.02c-3.258-0.264-5.445-2.427-5.738-5.688c-0.064-0.715-0.048-1.438-0.048-2.156
			c-0.002-114.449,0.015-228.898-0.057-343.348c-0.003-5.159,2.177-7.996,7.921-7.95c21.833,0.169,43.668,0.067,65.502,0.068
			c0.799,0,1.603-0.025,2.396,0.036c3.081,0.243,5.308,2.505,5.522,5.61c0.056,0.796,0.019,1.599,0.019,2.398
			C562.36,301.677,562.36,358.86,562.36,416.046z M550.34,583.552c0-111.84,0-223.443,0-335.021
			c-3.046-0.527-55.654-0.383-57.315,0.132c-0.497,5.202-0.254,333.083,0.271,334.89C512.212,583.552,531.15,583.552,550.34,583.552
			z"/>
		<path fill="#2CECEF" d="M591.982,623.387c0,3.981,0,7.701,0,11.327c-0.122,0.156-0.16,0.232-0.221,0.277
			c-0.063,0.047-0.146,0.075-0.223,0.088c-0.313,0.05-0.629,0.125-0.942,0.125c-194.793,0.005-389.585,0.005-584.378,0
			c-0.238,0-0.481-0.021-0.714-0.073c-0.147-0.034-0.279-0.146-0.564-0.299c0-3.644,0-7.365,0-11.445
			C200.621,623.387,396.233,623.387,591.982,623.387z"/>
		<path fill="#2CECEF" d="M453.196,485.354c0,34.074-0.073,68.149,0.069,102.224c0.023,5.945-3,8.063-8.13,8.027
			c-21.755-0.152-43.514-0.064-65.271-0.064c-0.56,0-1.12,0.017-1.68-0.006c-3.738-0.138-6.119-2.474-6.29-6.171
			c-0.025-0.559-0.007-1.12-0.007-1.68c0-68.149,0-136.299,0-204.448c0-0.479-0.01-0.96,0.003-1.438
			c0.092-4.032,2.443-6.475,6.424-6.479c22.797-0.022,45.593-0.021,68.39-0.003c4.077,0.004,6.378,2.321,6.485,6.374
			c0.02,0.719,0.005,1.439,0.005,2.159C453.196,417.685,453.196,451.52,453.196,485.354z M441.255,583.548
			c0-65.527,0-130.813,0-196.076c-3.243-0.489-55.652-0.336-57.313,0.144c-0.5,5.462-0.257,194.094,0.274,195.934
			C403.132,583.548,422.068,583.548,441.255,583.548z"/>
		<path fill="#2CECEF" d="M344.08,520.204c0,22.479-0.107,44.956,0.069,67.434c0.049,6.187-3.419,7.997-7.959,7.968
			c-21.837-0.141-43.675-0.063-65.514-0.064c-0.8,0-1.606,0.049-2.397-0.039c-3.11-0.351-5.25-2.608-5.444-5.721
			c-0.05-0.797-0.025-1.6-0.025-2.398c-0.001-44.875-0.001-89.751,0-134.626c0-0.562-0.012-1.12,0.004-1.681
			c0.102-3.833,2.296-6.105,6.079-6.291c0.639-0.03,1.278-0.019,1.919-0.019c21.758-0.001,43.516,0.09,65.272-0.063
			c5.55-0.04,8.104,2.436,8.063,8.069C343.985,475.248,344.08,497.727,344.08,520.204z M274.898,456.669
			c-0.557,3.842-0.356,125.163,0.167,126.813c4.588,0.43,55.185,0.237,57.044-0.236c0.04-0.279,0.125-0.591,0.125-0.9
			c0.008-41.437,0.011-82.872,0.007-124.31c0-0.315-0.068-0.633-0.12-0.946c-0.012-0.069-0.088-0.131-0.138-0.19
			c-0.051-0.061-0.106-0.117-0.208-0.229C312.885,456.669,293.947,456.669,274.898,456.669z"/>
		<path fill="#2CECEF" d="M235,544.983c0,14.235,0,28.472-0.001,42.708c0,0.719,0.035,1.443-0.033,2.158
			c-0.305,3.211-2.566,5.419-5.796,5.674c-0.557,0.043-1.119,0.018-1.679,0.018c-22.154,0-44.308,0-66.461-0.002
			c-0.64,0-1.285,0.029-1.917-0.046c-2.84-0.334-4.844-2.212-5.332-5.034c-0.149-0.86-0.18-1.749-0.18-2.625
			c-0.01-28.553-0.009-57.104-0.006-85.655c0-0.561-0.016-1.122,0.027-1.679c0.302-3.92,2.6-6.121,6.547-6.142
			c7.438-0.037,14.876-0.012,22.314-0.012c14.796,0,29.592,0,44.387,0c0.72,0,1.441-0.023,2.159,0.015
			c3.345,0.18,5.66,2.418,5.94,5.756c0.06,0.716,0.029,1.438,0.029,2.158C235,516.512,235,530.747,235,544.983z M165.675,506.37
			c-0.521,4.96-0.301,75.419,0.207,77.102c18.994,0,37.984,0,57.054,0c0-25.769,0-51.38,0-77.102
			C203.787,506.37,184.794,506.37,165.675,506.37z"/>
		<path fill="#2CECEF" d="M85.185,524.107c11.195,0,22.391-0.031,33.586,0.039c1.386,0.009,2.863,0.341,4.129,0.905
			c1.603,0.715,2.524,2.189,2.765,3.964c0.14,1.025,0.163,2.071,0.163,3.107c0.009,18.474-0.099,36.945,0.068,55.416
			c0.053,5.884-2.916,8.101-8.118,8.064c-21.91-0.15-43.821-0.06-65.732-0.075c-1.029,0-2.093-0.028-3.083-0.278
			c-2.566-0.646-4.219-2.716-4.42-5.344c-0.037-0.478-0.014-0.959-0.014-1.438c0-19.112,0.007-38.226-0.014-57.337
			c-0.001-1.641,0.147-3.206,1.165-4.55c1.297-1.712,3.053-2.488,5.199-2.479c4.559,0.019,9.116,0.004,13.675,0.003
			C71.431,524.106,78.308,524.106,85.185,524.107z M113.877,536.177c-19.178,0-38.224,0-57.309,0c0,15.852,0,31.547,0,47.218
			c3.909,0.521,55.642,0.33,57.309-0.195C113.877,567.571,113.877,551.937,113.877,536.177z"/>
	</g>
</g>
</svg>
