<?xml version="1.0" encoding="utf-8"?>
<!-- Generator: Adobe Illustrator 16.0.0, SVG Export Plug-In . SVG Version: 6.00 Build 0)  -->
<!DOCTYPE svg PUBLIC "-//W3C//DTD SVG 1.1//EN" "http://www.w3.org/Graphics/SVG/1.1/DTD/svg11.dtd">
<svg version="1.1" id="Layer_1" xmlns="http://www.w3.org/2000/svg" xmlns:xlink="http://www.w3.org/1999/xlink" x="0px" y="0px"
	 width="612px" height="532px" viewBox="0 0 612 532" enable-background="new 0 0 612 532" xml:space="preserve">
<circle fill="#37A986" cx="303.061" cy="263.941" r="249.059"/>
<g>
	<path fill-rule="evenodd" clip-rule="evenodd" fill="#FFFFFF" d="M475.402,260.303c-4.071,8.822-11.709,13.639-20.001,17.643
		c-16.342,7.891-33.828,12.036-51.522,15.404c-21.136,4.024-42.494,6.217-63.959,7.458c-0.549,0.032-1.093,0.147-1.99,0.273
		c0,41.191,0,82.337,0,123.73c-24.05,0-47.737,0-71.844,0c0-41.168,0-82.394,0-123.934c-6.294-0.501-12.209-0.896-18.109-1.451
		c-29.272-2.757-58.366-6.651-86.071-17.046c-7.803-2.929-15.471-6.896-22.243-11.729c-11.492-8.2-11.32-18.245-0.369-27.199
		c9.419-7.699,20.677-11.73,32.082-15.241c23.309-7.175,47.286-10.879,71.507-13.177c7.589-0.72,15.189-1.333,22.926-2.009
		c0-11.57,0-22.888,0-34.679c-32.609,0-65.058,0-97.698,0c0-24.17,0-47.87,0-71.783c89.193,0,178.284,0,267.692,0
		c0.049,1.089,0.143,2.183,0.143,3.277c0.009,21.61-0.059,43.22,0.08,64.83c0.021,3.1-0.991,3.697-3.853,3.688
		c-30.162-0.097-60.327-0.019-90.49-0.124c-3.04-0.01-4.059,0.729-3.981,3.907c0.215,9.111,0.069,18.231,0.082,27.348
		c0.002,1.096,0.098,2.192,0.151,3.341c9.258,0.766,18.231,1.324,27.162,2.28c29.343,3.143,58.447,7.447,85.979,18.861
		c2.178,0.902,4.305,1.939,6.396,3.029c7.469,3.891,14.224,8.571,17.931,16.546C475.402,255.799,475.402,258.051,475.402,260.303z
		 M265.979,221.079c-1.567,0-2.679-0.074-3.779,0.012c-11.552,0.892-23.127,1.573-34.648,2.775
		c-18.466,1.925-36.881,4.462-54.596,10.23c-6.433,2.095-12.746,5.107-18.447,8.744c-5.519,3.522-5.382,8.831-0.066,12.741
		c3.748,2.758,8.038,4.998,12.393,6.671c14.248,5.473,29.222,8.055,44.254,10.232c24.197,3.503,48.548,5.103,72.979,5.667
		c41.595,0.962,83.065-0.473,124.092-7.853c11.769-2.117,23.239-5.971,34.754-9.345c2.941-0.862,5.719-2.671,8.248-4.495
		c6.518-4.703,6.43-9.83-0.088-14.627c-1.531-1.127-3.173-2.176-4.904-2.946c-3.485-1.55-6.984-3.158-10.623-4.263
		c-31.482-9.552-63.964-12.172-96.594-13.685c-0.282-0.013-0.579,0.259-1.278,0.593c0,13.628,0,27.401,0,41.342
		c-24.114,1.169-47.785,1.178-71.697-0.18C265.979,248.73,265.979,235.136,265.979,221.079z"/>
</g>
</svg>
