<?xml version="1.0" encoding="utf-8"?>
<!-- Generator: Adobe Illustrator 16.0.0, SVG Export Plug-In . SVG Version: 6.00 Build 0)  -->
<!DOCTYPE svg PUBLIC "-//W3C//DTD SVG 1.1//EN" "http://www.w3.org/Graphics/SVG/1.1/DTD/svg11.dtd">
<svg version="1.1" id="Layer_1" xmlns="http://www.w3.org/2000/svg" xmlns:xlink="http://www.w3.org/1999/xlink" x="0px" y="0px"
	 width="682.58px" height="90.667px" viewBox="0 0 682.58 90.667" enable-background="new 0 0 682.58 90.667" xml:space="preserve">
<g>
	<path fill="#FFFFFF" d="M7.223,7.302h33.325c8.487,0,15.038,1.644,19.652,4.927c4.612,3.285,6.919,8.397,6.919,15.334
		c0,3.764-0.96,6.975-2.878,9.632c-1.92,2.657-4.578,4.725-7.972,6.2c5.314,1.107,9.447,3.193,12.4,6.255
		c2.951,3.063,4.429,7.251,4.429,12.566c0,6.349-2.344,11.331-7.03,14.946c-4.688,3.617-11.497,5.425-20.427,5.425H7.223V7.302z
		 M37.669,36.862c3.321,0,5.868-0.571,7.639-1.716c1.771-1.143,2.657-3.006,2.657-5.591c0-2.657-0.85-4.557-2.546-5.702
		c-1.699-1.144-4.207-1.716-7.529-1.716H25.822v14.725H37.669z M42.873,67.751c6.937,0,10.407-2.583,10.407-7.75
		c0-2.804-0.96-4.853-2.878-6.145c-1.92-1.291-4.724-1.938-8.414-1.938H25.822v15.832H42.873z"/>
	<path fill="#FFFFFF" d="M86.935,7.302h33.325c8.487,0,15.038,1.644,19.652,4.927c4.612,3.285,6.919,8.397,6.919,15.334
		c0,3.764-0.96,6.975-2.878,9.632c-1.92,2.657-4.578,4.725-7.972,6.2c5.314,1.107,9.447,3.193,12.4,6.255
		c2.951,3.063,4.429,7.251,4.429,12.566c0,6.349-2.344,11.331-7.03,14.946c-4.688,3.617-11.497,5.425-20.427,5.425H86.935V7.302z
		 M117.381,36.862c3.321,0,5.868-0.571,7.639-1.716c1.771-1.143,2.657-3.006,2.657-5.591c0-2.657-0.85-4.557-2.546-5.702
		c-1.699-1.144-4.207-1.716-7.529-1.716h-12.068v14.725H117.381z M122.584,67.751c6.937,0,10.407-2.583,10.407-7.75
		c0-2.804-0.96-4.853-2.878-6.145c-1.92-1.291-4.724-1.938-8.414-1.938h-16.165v15.832H122.584z"/>
	<path fill="#FFFFFF" d="M181.261,44.944c0,3.027,0.498,5.851,1.495,8.47c0.996,2.621,2.417,4.89,4.262,6.809
		c1.844,1.92,4.078,3.451,6.698,4.595c2.619,1.145,5.517,1.716,8.691,1.716c4.65,0,8.653-0.756,12.013-2.27
		c3.357-1.512,6.255-3.228,8.691-5.148l8.525,13.396c-3.913,3.542-8.342,6.293-13.286,8.248c-4.946,1.955-10.445,2.934-16.496,2.934
		c-5.685,0-10.943-0.979-15.777-2.934c-4.835-1.955-9.023-4.667-12.566-8.138c-3.543-3.468-6.33-7.564-8.359-12.289
		c-2.031-4.723-3.044-9.854-3.044-15.389s1.014-10.665,3.044-15.389c2.029-4.723,4.816-8.819,8.359-12.289
		c3.543-3.469,7.731-6.181,12.566-8.138c4.833-1.955,10.092-2.934,15.777-2.934c6.051,0,11.55,0.979,16.496,2.934
		c4.944,1.957,9.373,4.706,13.286,8.249l-8.525,13.396c-2.436-1.918-5.333-3.634-8.691-5.148c-3.359-1.512-7.363-2.27-12.013-2.27
		c-3.174,0-6.072,0.572-8.691,1.716c-2.621,1.145-4.854,2.676-6.698,4.595c-1.846,1.92-3.266,4.207-4.262,6.864
		C181.759,39.187,181.261,41.993,181.261,44.944z"/>
	<path fill="#FFFFFF" d="M240.381,45.055c0-5.536,0.978-10.684,2.934-15.445c1.955-4.76,4.667-8.874,8.137-12.344
		c3.469-3.469,7.546-6.181,12.234-8.138c4.687-1.955,9.798-2.934,15.334-2.934s10.684,0.979,15.444,2.934
		c4.761,1.957,8.875,4.669,12.345,8.138c3.468,3.47,6.181,7.584,8.137,12.344c1.955,4.761,2.934,9.909,2.934,15.445
		s-0.979,10.647-2.934,15.333c-1.956,4.688-4.669,8.766-8.137,12.234c-3.47,3.47-7.584,6.183-12.345,8.138
		c-4.76,1.955-9.909,2.934-15.444,2.934s-10.647-0.979-15.334-2.934c-4.688-1.955-8.765-4.667-12.234-8.138
		c-3.47-3.468-6.183-7.546-8.137-12.234C241.359,55.703,240.381,50.591,240.381,45.055z M258.539,45.055
		c0,3.027,0.516,5.813,1.55,8.359c1.033,2.546,2.453,4.78,4.263,6.698c1.808,1.92,3.966,3.415,6.477,4.484
		c2.508,1.071,5.24,1.605,8.193,1.605c3.025,0,5.793-0.534,8.304-1.605c2.508-1.069,4.667-2.564,6.477-4.484
		c1.808-1.918,3.21-4.152,4.207-6.698s1.495-5.332,1.495-8.359c0-3.026-0.498-5.849-1.495-8.47
		c-0.997-2.619-2.399-4.872-4.207-6.753c-1.81-1.882-3.968-3.358-6.477-4.429c-2.51-1.069-5.278-1.605-8.304-1.605
		c-2.953,0-5.685,0.537-8.193,1.605c-2.51,1.071-4.669,2.546-6.477,4.429c-1.81,1.882-3.23,4.134-4.263,6.753
		C259.054,39.206,258.539,42.029,258.539,45.055z"/>
	<path fill="#FFFFFF" d="M332.161,7.302h18.6v75.285h-18.6V7.302z"/>
	<path fill="#FFFFFF" d="M388.182,36.862v45.725h-18.6V7.302h16.164l37.975,45.725V7.302h18.6v75.285h-16.164L388.182,36.862z"/>
	<path fill="#FFFFFF" d="M461.142,7.302h37.42c3.766,0,7.325,0.554,10.685,1.661c3.358,1.107,6.311,2.806,8.856,5.093
		c2.547,2.289,4.557,5.187,6.035,8.691c1.475,3.507,2.214,7.659,2.214,12.456c0,4.281-0.739,8.12-2.214,11.514
		c-1.479,3.396-3.488,6.274-6.035,8.636c-2.546,2.363-5.498,4.17-8.856,5.425c-3.359,1.256-6.919,1.882-10.685,1.882h-18.821v19.928
		h-18.6V7.302z M479.741,23.466v23.028h15.943c3.247,0,5.96-1.033,8.138-3.1c2.176-2.065,3.266-4.833,3.266-8.304
		c0-3.69-1.09-6.549-3.266-8.58c-2.178-2.029-4.891-3.045-8.138-3.045H479.741z"/>
	<path fill="#FFFFFF" d="M555.468,7.302h21.922l28.453,75.285h-18.822l-5.092-13.839h-31.554l-5.204,13.839h-18.82L555.468,7.302z
		 M555.025,55.13h22.365l-10.961-29.45L555.025,55.13z"/>
	<path fill="#FFFFFF" d="M628.649,53.58L599.974,8.63V7.302h20.703l17.271,29.118L655.22,7.302h20.703V8.63l-28.675,44.839v29.118
		h-18.6V53.58z"/>
</g>
</svg>
